<?xml version="1.0" encoding="UTF-8"?>
<svg version="1.1" xmlns="http://www.w3.org/2000/svg" width="512" height="512">
<path d="M0 0 C1.1492395 -0.00845947 2.298479 -0.01691895 3.48254395 -0.02563477 C4.7345459 -0.01956207 5.98654785 -0.01348938 7.27648926 -0.00723267 C8.61572701 -0.01130046 9.9549614 -0.01664351 11.29418945 -0.02316284 C14.92696563 -0.03682825 18.55948587 -0.03153832 22.19226646 -0.02202559 C26.00587003 -0.01441236 29.81945218 -0.02148037 33.63305664 -0.02618408 C40.04549064 -0.03164211 46.45782101 -0.02445437 52.87023926 -0.01016235 C60.25522211 0.00610862 67.63995574 0.0009165 75.02493238 -0.01564157 C81.38359168 -0.02932192 87.74217653 -0.03114265 94.10084581 -0.02332556 C97.89010214 -0.01867763 101.67924203 -0.0179428 105.4684906 -0.02793503 C109.0407302 -0.03669621 112.6126542 -0.03041883 116.18486023 -0.01325226 C118.09910668 -0.00748465 120.01338027 -0.01622834 121.9276123 -0.02563477 C133.06650411 0.05477939 143.60017439 1.86224808 153.49719238 7.13095093 C154.17338623 7.48165649 154.84958008 7.83236206 155.54626465 8.19369507 C164.85726761 13.14830707 171.97724296 19.80164196 179.24719238 27.38095093 C182.955752 25.85190926 185.09826979 23.610352 187.80969238 20.69345093 C200.30440063 7.97889444 217.17436589 0.56194969 235.00914001 -0.00672913 C237.43793795 -0.02728391 239.86690761 -0.03196065 242.29577637 -0.02310181 C243.64755308 -0.02882189 244.99932497 -0.0357924 246.35108948 -0.04389954 C249.9787773 -0.06165095 253.60622095 -0.06069889 257.23393893 -0.05495715 C260.27359949 -0.05184352 263.31321458 -0.05798064 266.35286862 -0.0639959 C273.52137725 -0.0779758 280.68976649 -0.07653044 287.85827637 -0.06509399 C295.24020853 -0.05357706 302.62177888 -0.06776289 310.00366348 -0.09449047 C316.36407755 -0.11665245 322.72437803 -0.12328499 329.08482796 -0.11741406 C332.87434815 -0.11404953 336.66363562 -0.11642772 340.45312309 -0.13366508 C344.00992224 -0.1491439 347.56618309 -0.14516914 351.12296104 -0.12635994 C353.04445613 -0.12092745 354.9659755 -0.13517479 356.88742065 -0.15005493 C363.28247412 -0.09539731 367.43214775 -0.02131248 372.24719238 4.38095093 C376.36425203 8.9640928 375.58687328 14.38326228 375.43469238 20.19345093 C375.42115723 21.1724939 375.40762207 22.15153687 375.39367676 23.1602478 C375.3584455 25.56771718 375.30918503 27.97404657 375.24719238 30.38095093 C375.88532867 30.37206848 376.52346497 30.36318604 377.18093872 30.35403442 C383.83200103 30.26543347 390.48289525 30.20516349 397.13439941 30.16122437 C399.6155885 30.14112852 402.09673033 30.11384709 404.57775879 30.07919312 C408.1473762 30.03058799 411.71636654 30.0079612 415.28625488 29.99032593 C416.39272369 29.96968079 417.4991925 29.94903564 418.63919067 29.92776489 C424.64682554 29.9260207 428.65104464 30.0708552 433.24719238 34.38095093 C435.8057339 37.9956534 436.62269275 40.44049836 436.62750912 44.85204983 C436.63594906 45.9451243 436.644389 47.03819877 436.6530847 48.1643967 C436.64707465 49.35971565 436.6410646 50.55503459 436.63487244 51.78657532 C436.64295074 53.69773592 436.64295074 53.69773592 436.65119225 55.64750582 C436.66566275 59.18198974 436.66139723 62.71624079 436.65402544 66.25073755 C436.64930001 70.06336501 436.66179805 73.87594163 436.67204285 77.68855286 C436.68924843 85.15693186 436.69006723 92.62522679 436.68482994 100.09362047 C436.68079032 106.16325305 436.68222933 112.23286076 436.6875782 118.30249214 C436.68832662 119.16599506 436.68907505 120.02949798 436.68984615 120.91916766 C436.69137761 122.67330961 436.69291595 124.42745155 436.69446111 126.18159349 C436.70819249 142.63557601 436.70274397 159.089511 436.6912759 175.54349244 C436.68134257 190.59970857 436.69428477 205.65580182 436.71821009 220.71199899 C436.74258667 236.16850868 436.75221254 251.6249611 436.74555737 267.08148962 C436.74206197 275.76045242 436.74431833 284.43932069 436.7618084 293.11826897 C436.77651235 300.50639525 436.77718954 307.89436045 436.75973748 315.28248351 C436.75121017 319.05238354 436.74911982 322.8219956 436.76438904 326.5918808 C436.78073271 330.67760288 436.76612344 334.76262679 436.74839783 338.8483429 C436.75800283 340.04143112 436.76760784 341.23451934 436.77750391 342.46376175 C436.72304013 348.54418038 436.64157766 352.74955027 432.24719238 357.38095093 C428.25077914 360.64161617 424.56793727 360.79821391 419.59378052 360.72584534 C418.83082306 360.72684764 418.06786561 360.72784994 417.28178823 360.72888261 C414.72916579 360.72880219 412.17716252 360.70745878 409.62463379 360.68637085 C407.79291538 360.68228968 405.9611933 360.67963981 404.12947083 360.67831421 C400.1865309 360.67309913 396.24375192 360.6591333 392.30086136 360.63881493 C386.06478118 360.60813624 379.82888657 360.6054889 373.59274292 360.60832214 C355.86024724 360.6126407 338.12797857 360.58918249 320.39562988 360.51498413 C310.60085447 360.47423841 300.80646885 360.46201311 291.01162279 360.48122102 C284.81360316 360.49178277 278.61703241 360.46721756 272.41922402 360.41684854 C268.56078699 360.39394409 264.70297966 360.40450896 260.84454918 360.42456818 C259.05751205 360.42719357 257.2703937 360.41614787 255.48354149 360.39030647 C246.13249827 359.95299676 246.13249827 359.95299676 237.66903305 363.14657021 C235.90166891 365.14488992 234.57307368 367.07552871 233.24719238 369.38095093 C221.36467148 381.75768156 204.34408067 390.22321903 187.03625488 390.61923218 C163.30009611 391.04992082 144.53633697 385.75731077 126.89172363 369.16610718 C121.50228337 363.8911329 121.50228337 363.8911329 120.24719238 361.38095093 C119.2889752 361.37948437 118.33075802 361.37801781 117.34350395 361.37650681 C94.03316439 361.33991967 70.72296859 361.28048039 47.41274834 361.19704819 C36.14011266 361.15723067 24.86754706 361.12485194 13.59484863 361.10995483 C3.77011415 361.0969524 -6.05446629 361.07002373 -15.87911403 361.02633786 C-21.0817181 361.00369143 -26.28413197 360.98804216 -31.4867897 360.98906708 C-36.38373363 360.9898118 -41.28025657 360.97193631 -46.1770916 360.9397831 C-47.97416578 360.93126469 -49.77128708 360.92954731 -51.56837273 360.93514824 C-54.02342014 360.94178059 -56.47712511 360.9238872 -58.93203735 360.89993286 C-59.99723278 360.91157349 -59.99723278 360.91157349 -61.0839473 360.92344928 C-66.08676386 360.83711334 -68.94922866 359.59449674 -72.75280762 356.38095093 C-75.32829412 352.77886852 -76.1283126 350.31717545 -76.13312435 345.90985203 C-76.14578426 344.27024032 -76.14578426 344.27024032 -76.15869993 342.59750515 C-76.15268988 341.40218621 -76.14667984 340.20686727 -76.14048767 338.97532654 C-76.14587321 337.70121947 -76.15125875 336.42711241 -76.15680748 335.11439604 C-76.17127798 331.57991212 -76.16701246 328.04566106 -76.15964067 324.51116431 C-76.15491524 320.69853685 -76.16741329 316.88596023 -76.17765808 313.073349 C-76.19486366 305.60497 -76.19568247 298.13667506 -76.19044518 290.66828138 C-76.18640555 284.59864881 -76.18784456 278.5290411 -76.19319344 272.45940971 C-76.19394186 271.59590679 -76.19469028 270.73240387 -76.19546138 269.8427342 C-76.19699284 268.08859225 -76.19853119 266.33445031 -76.20007635 264.58030837 C-76.21380772 248.12632585 -76.2083592 231.67239085 -76.19689114 215.21840941 C-76.18695781 200.16219329 -76.1999 185.10610004 -76.22382533 170.04990286 C-76.2482019 154.59339318 -76.25782777 139.13694076 -76.2511726 123.68041223 C-76.2476772 115.00144944 -76.24993356 106.32258117 -76.26742363 97.64363289 C-76.28212759 90.25550661 -76.28280478 82.8675414 -76.26535272 75.47941834 C-76.2568254 71.70951832 -76.25473506 67.93990626 -76.27000427 64.17002106 C-76.28634795 60.08429898 -76.27173867 55.99927507 -76.25401306 51.91355896 C-76.26361807 50.72047074 -76.27322307 49.52738252 -76.28311914 48.29814011 C-76.22702763 42.0359984 -76.04134277 38.10018957 -71.75280762 33.38095093 C-68.25788124 30.69961733 -65.77850431 30.00850059 -61.41174316 30.04037476 C-59.85069099 30.04071465 -59.85069099 30.04071465 -58.25810242 30.0410614 C-57.14647232 30.05654526 -56.03484222 30.07202911 -54.88952637 30.08798218 C-53.16884697 30.09434944 -53.16884697 30.09434944 -51.41340637 30.10084534 C-47.75546641 30.11761609 -44.09808062 30.15526657 -40.44030762 30.19345093 C-37.95789371 30.20849978 -35.47547115 30.22218784 -32.99304199 30.23446655 C-26.9127753 30.26751444 -20.83283106 30.31769853 -14.75280762 30.38095093 C-14.77375488 29.77621948 -14.79470215 29.17148804 -14.81628418 28.5484314 C-14.89989707 25.78444321 -14.95160816 23.0207218 -15.00280762 20.25595093 C-15.03632324 19.3046228 -15.06983887 18.35329468 -15.10437012 17.37313843 C-15.1854809 11.5331618 -14.87777437 7.88474116 -10.75280762 3.38095093 C-7.05121484 0.73452953 -4.52753893 0.0051407 0 0 Z " fill="#F2F4F8" transform="translate(75.7528076171875,121.61904907226563)"/>
<path d="M0 0 C1.56105217 0.00033989 1.56105217 0.00033989 3.15364075 0.00068665 C4.26527084 0.0161705 5.37690094 0.03165436 6.5222168 0.04760742 C8.24289619 0.05397469 8.24289619 0.05397469 9.99833679 0.06047058 C13.65627676 0.07724134 17.31366254 0.11489182 20.97143555 0.15307617 C23.45384946 0.16812503 25.93627202 0.18181308 28.41870117 0.1940918 C34.49896786 0.22713968 40.5789121 0.27732377 46.65893555 0.34057617 C46.65953264 0.88595427 46.66012972 1.43133237 46.66074491 1.99323708 C46.69664052 34.3183345 46.753282 66.64331944 46.8368565 98.96832687 C46.84687393 102.84981519 46.85671806 106.73130393 46.86645508 110.61279297 C46.86839645 111.38552602 46.87033782 112.15825907 46.87233803 112.95440828 C46.90335732 125.46563699 46.92033848 137.97684736 46.93212977 150.48810727 C46.9445417 163.32626429 46.97204404 176.16432506 47.01354861 189.00242132 C47.03868286 196.9239473 47.05205289 204.84531366 47.05036512 212.76688009 C47.05033184 218.84164227 47.07129612 224.91614707 47.10010338 230.99084854 C47.10862971 233.4825203 47.11033388 235.97422608 47.10473824 238.46590614 C47.09811832 241.8663457 47.1159725 245.26581145 47.13995361 248.66615295 C47.1321932 249.65351867 47.12443278 250.64088439 47.1164372 251.65817028 C47.19236193 257.73433499 47.96090765 261.44188253 51.65893555 266.34057617 C55.4447992 269.44028422 58.42589262 269.71350245 63.24263 269.70565796 C64.21449864 269.71033646 64.21449864 269.71033646 65.20600098 269.71510947 C67.36934143 269.72203389 69.53201504 269.7077407 71.6953125 269.69360352 C73.24955372 269.69443463 74.80379472 269.69665177 76.35803223 269.70014954 C79.7018233 269.7050955 83.04543888 269.70100871 86.38921547 269.69013596 C91.68046411 269.67376374 96.97149303 269.68224644 102.26274109 269.69497681 C116.35838858 269.72508641 130.45399656 269.72364933 144.54965991 269.70472395 C153.81097899 269.6923804 163.07204896 269.6942811 172.33333939 269.72311175 C177.58910607 269.73832429 182.84419567 269.73089461 188.09991992 269.70640159 C191.37596516 269.69630606 194.65170226 269.70704954 197.92771149 269.72351646 C199.44177727 269.7269581 200.95589096 269.72191369 202.4698925 269.70754814 C210.53503724 269.63578738 217.42822914 269.57807122 223.65893555 275.34057617 C226.30402334 278.41229103 226.77765555 280.7972387 227.09643555 284.71557617 C227.58461312 290.45884175 229.43861085 294.37400286 233.84643555 298.27807617 C238.48142543 300.02907235 242.96020256 300.25918336 247.69018555 298.64916992 C252.12136597 296.40541543 254.08612617 293.97162599 255.65893555 289.34057617 C255.80984414 287.86382784 255.93318615 286.38409224 256.03393555 284.90307617 C256.44344108 280.04634049 258.17106387 276.74037028 261.65893555 273.34057617 C265.63229531 270.48346759 268.38825439 269.96630576 273.24935913 269.96876526 C273.89797712 269.9649407 274.54659511 269.96111613 275.21486819 269.95717567 C277.38052733 269.94791641 279.54554279 269.95986522 281.71118164 269.97167969 C283.26704676 269.96921086 284.82291022 269.96537161 286.37876892 269.96026611 C289.72582924 269.95193446 293.07271938 269.95273031 296.41978073 269.96045113 C301.71496183 269.97204253 307.00992443 269.95986425 312.30508423 269.9438324 C325.45783168 269.90765176 338.610574 269.9014073 351.7633667 269.90393066 C361.98479663 269.90564246 372.20604792 269.89850272 382.42742789 269.8639521 C387.68839645 269.84717201 392.94892911 269.84894083 398.20989585 269.86477482 C401.48695122 269.87057976 404.76380077 269.85981731 408.04081917 269.8445282 C409.55691111 269.84080808 411.07303787 269.8438924 412.58909798 269.85439873 C423.39094485 270.16235569 423.39094485 270.16235569 432.65893555 265.34057617 C436.22978641 259.94471016 436.08822497 255.02971367 436.05766296 248.78640747 C436.0676332 247.19225756 436.0676332 247.19225756 436.07780486 245.56590259 C436.09645558 242.00518208 436.0938281 238.44479699 436.09130859 234.8840332 C436.10032445 232.33145167 436.11065123 229.77887447 436.12219238 227.2263031 C436.14408763 221.73099949 436.15686188 216.2357951 436.16132164 210.74045181 C436.16778544 202.79517998 436.19072684 194.85002262 436.21766493 186.90479694 C436.26092581 174.01361446 436.29089655 161.1224368 436.3125 148.23120117 C436.33351179 135.71001821 436.36078862 123.18887469 436.39648438 110.66772461 C436.3986832 109.8956691 436.40088203 109.12361358 436.40314748 108.32816245 C436.41421718 104.4549115 436.42540998 100.58166092 436.43666399 96.7084105 C436.52983919 64.58583195 436.60144174 32.4632391 436.65893555 0.34057617 C443.95455008 0.23902592 451.24998184 0.16904726 458.54614258 0.12084961 C461.02733166 0.10075376 463.5084735 0.07347233 465.98950195 0.03881836 C469.55911936 -0.00978676 473.12810971 -0.03241355 476.69799805 -0.05004883 C477.80446686 -0.07069397 478.91093567 -0.09133911 480.05093384 -0.11260986 C486.0585687 -0.11435405 490.0627878 0.03048045 494.65893555 4.34057617 C497.21747706 7.95527865 498.03443591 10.4001236 498.03925228 14.81167507 C498.04769222 15.90474954 498.05613216 16.99782401 498.06482786 18.12402195 C498.05881781 19.31934089 498.05280777 20.51465983 498.0466156 21.74620056 C498.05469391 23.65736116 498.05469391 23.65736116 498.06293541 25.60713106 C498.07740591 29.14161498 498.07314039 32.67586604 498.0657686 36.21036279 C498.06104317 40.02299025 498.07354122 43.83556687 498.08378601 47.6481781 C498.10099159 55.1165571 498.1018104 62.58485204 498.09657311 70.05324572 C498.09253348 76.12287829 498.09397249 82.192486 498.09932137 88.26211739 C498.10006979 89.12562031 498.10081821 89.98912323 498.10158931 90.8787929 C498.10312077 92.63293485 498.10465912 94.38707679 498.10620428 96.14121873 C498.11993565 112.59520125 498.11448713 129.04913624 498.10301907 145.50311769 C498.09308574 160.55933381 498.10602793 175.61542706 498.12995326 190.67162424 C498.15432983 206.12813392 498.1639557 221.58458634 498.15730053 237.04111487 C498.15380513 245.72007766 498.15606149 254.39894593 498.17355156 263.07789421 C498.18825552 270.46602049 498.18893271 277.85398569 498.17148065 285.24210875 C498.16295333 289.01200878 498.16086299 292.78162084 498.1761322 296.55150604 C498.19247588 300.63722812 498.1778666 304.72225203 498.16014099 308.80796814 C498.169746 310.00105636 498.179351 311.19414458 498.18924707 312.42338699 C498.13478329 318.50380562 498.05332082 322.70917552 493.65893555 327.34057617 C489.66252231 330.60124141 485.97968044 330.75783916 481.00552368 330.68547058 C480.24256623 330.68647288 479.47960877 330.68747518 478.69353139 330.68850785 C476.14090895 330.68842743 473.58890568 330.66708403 471.03637695 330.64599609 C469.20465854 330.64191492 467.37293647 330.63926506 465.54121399 330.63793945 C461.59827406 330.63272437 457.65549508 330.61875854 453.71260452 330.59844017 C447.47652435 330.56776148 441.24062973 330.56511415 435.00448608 330.56794739 C417.2719904 330.57226594 399.53972173 330.54880773 381.80737305 330.47460938 C372.01259763 330.43386366 362.21821202 330.42163836 352.42336595 330.44084626 C346.22534632 330.45140802 340.02877557 330.42684281 333.83096719 330.37647378 C329.97253015 330.35356934 326.11472283 330.36413421 322.25629234 330.38419342 C320.46925521 330.38681881 318.68213686 330.37577311 316.89528465 330.34993172 C307.54424144 329.912622 307.54424144 329.912622 299.08077621 333.10619545 C297.31341208 335.10451517 295.98481684 337.03515396 294.65893555 339.34057617 C282.77641464 351.71730681 265.75582384 360.18284427 248.44799805 360.57885742 C224.71183927 361.00954606 205.94808014 355.71693601 188.3034668 339.12573242 C182.91402653 333.85075815 182.91402653 333.85075815 181.65893555 331.34057617 C180.70071836 331.33910961 179.74250118 331.33764305 178.75524712 331.33613205 C155.44490755 331.29954492 132.13471175 331.24010564 108.8244915 331.15667343 C97.55185582 331.11685591 86.27929023 331.08447718 75.0065918 331.06958008 C65.18185732 331.05657765 55.35727687 331.02964897 45.53262913 330.98596311 C40.33002506 330.96331667 35.1276112 330.9476674 29.92495346 330.94869232 C25.02800953 330.94943705 20.13148659 330.93156156 15.23465157 330.89940834 C13.43757738 330.89088994 11.64045608 330.88917255 9.84337044 330.89477348 C7.38832303 330.90140584 4.93461806 330.88351244 2.47970581 330.85955811 C1.41451039 330.87119873 1.41451039 330.87119873 0.32779586 330.88307452 C-4.6750207 330.79673858 -7.53748549 329.55412198 -11.34106445 326.34057617 C-13.91655096 322.73849377 -14.71656943 320.2768007 -14.72138119 315.86947727 C-14.7340411 314.22986557 -14.7340411 314.22986557 -14.74695677 312.5571304 C-14.74094672 311.36181145 -14.73493667 310.16649251 -14.72874451 308.93495178 C-14.73413004 307.66084472 -14.73951558 306.38673765 -14.74506432 305.07402128 C-14.75953482 301.53953736 -14.7552693 298.00528631 -14.74789751 294.47078955 C-14.74317208 290.65816209 -14.75567012 286.84558547 -14.76591492 283.03297424 C-14.7831205 275.56459524 -14.7839393 268.09630031 -14.77870201 260.62790663 C-14.77466239 254.55827405 -14.7761014 248.48866634 -14.78145027 242.41903496 C-14.78219869 241.55553204 -14.78294712 240.69202912 -14.78371822 239.80235944 C-14.78524968 238.04821749 -14.78678802 236.29407555 -14.78833319 234.53993361 C-14.80206456 218.08595109 -14.79661604 201.6320161 -14.78514797 185.17803466 C-14.77521465 170.12181853 -14.78815684 155.06572528 -14.81208216 140.00952811 C-14.83645874 124.55301842 -14.84608461 109.096566 -14.83942944 93.64003748 C-14.83593404 84.96107468 -14.8381904 76.28220641 -14.85568047 67.60325813 C-14.87038442 60.21513185 -14.87106161 52.82716665 -14.85360955 45.43904359 C-14.84508224 41.66914356 -14.84299189 37.8995315 -14.85826111 34.1296463 C-14.87460478 30.04392422 -14.85999551 25.95890031 -14.8422699 21.8731842 C-14.8518749 20.68009598 -14.86147991 19.48700776 -14.87137598 18.25776535 C-14.8169122 12.17734672 -14.73544973 7.97197683 -10.34106445 3.34057617 C-6.76201705 0.81532685 -4.36654866 -0.03187262 0 0 Z " fill="#5AB267" transform="translate(14.341064453125,151.659423828125)"/>
<path d="M0 0 C1.74109543 -0.01073296 1.74109543 -0.01073296 3.5173645 -0.02168274 C4.77676849 -0.02437164 6.03617249 -0.02706055 7.33374023 -0.02983093 C8.68448051 -0.03610295 10.03521908 -0.04275039 11.38595581 -0.04974365 C15.80473653 -0.07068604 20.22351724 -0.08113184 24.64233398 -0.09111023 C26.16708392 -0.09516045 27.69183368 -0.09927745 29.21658325 -0.10346031 C36.37665313 -0.12248467 43.53671283 -0.13672551 50.69680309 -0.14507228 C58.95227751 -0.15485655 67.20748466 -0.18121838 75.46286488 -0.22157317 C81.85283795 -0.25173505 88.24273434 -0.26654092 94.63277721 -0.26985329 C98.44590844 -0.27220223 102.2587532 -0.28114324 106.07180786 -0.30631447 C109.65719455 -0.32960406 113.24210623 -0.33382525 116.82754898 -0.32355309 C118.76584187 -0.32282234 120.7041107 -0.34190367 122.64230347 -0.36161804 C133.48799169 -0.29673606 133.48799169 -0.29673606 138.07983398 4.14717102 C142.13061129 9.00001282 141.50414465 14.32253767 141.47424316 20.32449341 C141.48033427 21.46651567 141.48642537 22.60853793 141.49270105 23.78516692 C141.50937995 27.620535 141.50454809 31.45557285 141.49975586 35.29096985 C141.50545552 38.03732355 141.51558566 40.7836572 141.52542114 43.52999878 C141.54647833 50.22099281 141.5510158 56.91190019 141.54923326 63.60292343 C141.54792564 69.04229665 141.55172977 74.48164284 141.55915833 79.92101097 C141.56125753 81.4878334 141.56335513 83.05465583 141.56545115 84.62147826 C141.56649467 85.40133818 141.5675382 86.18119811 141.56861335 86.98469015 C141.58751729 101.73526947 141.58646522 116.48579907 141.57964402 131.23638549 C141.57406991 144.72638193 141.59488805 158.21618839 141.62800449 171.70614044 C141.66175078 185.56030576 141.67690856 199.4143801 141.67228746 213.26858729 C141.67004353 221.04556125 141.67527458 228.82235965 141.70018005 236.59929848 C141.7212055 243.22104168 141.72477315 249.84251312 141.70588046 256.46426753 C141.69672926 259.84171056 141.69827525 263.21823284 141.71623611 266.59570312 C141.73438062 270.26056481 141.7217124 273.92407716 141.70129395 277.58889771 C141.71381179 278.6516499 141.72632964 279.71440209 141.73922682 280.80935889 C141.66039303 287.40833952 140.67487714 292.20979823 136.07983398 297.14717102 C131.82994562 300.05142216 128.44829877 300.52155431 123.36242676 300.51898193 C122.71224878 300.5228065 122.0620708 300.52663106 121.39219046 300.53057152 C119.22730212 300.53981052 117.06306111 300.52789497 114.89819336 300.5160675 C113.34055822 300.51853699 111.78292475 300.5223769 110.22529602 300.52748108 C106.87770544 300.53580507 103.53028505 300.5350235 100.18269348 300.52729607 C94.88770704 300.51569637 89.5929388 300.52788922 84.29797363 300.54391479 C71.1481456 300.58007854 57.99832295 300.58633818 44.84844971 300.58381653 C34.62441788 300.58210526 24.40056463 300.58922342 14.17658281 300.62379509 C8.91449937 300.64058467 3.65285164 300.63879864 -1.60923004 300.62297237 C-4.88405142 300.61717331 -8.15866638 300.62791899 -11.4334507 300.64321899 C-12.94996352 300.64694338 -14.46651109 300.6438424 -15.98299217 300.63334846 C-18.0567684 300.619956 -20.12904236 300.63120265 -22.20275879 300.64837646 C-23.3619558 300.64816718 -24.5211528 300.6479579 -25.71547699 300.64774227 C-30.49679836 301.39287833 -33.67172049 303.64042642 -36.73266602 307.33467102 C-37.86079945 310.00656599 -38.10519532 311.62472366 -38.29516602 314.45967102 C-38.73245185 319.59563603 -40.52374584 323.2785213 -43.92016602 327.14717102 C-47.69363293 329.61147594 -49.38129892 330.14717102 -53.92016602 330.14717102 C-54.08039174 291.93779657 -54.20373543 253.72847273 -54.27762332 215.5188303 C-54.28637826 211.00773629 -54.29543851 206.49664295 -54.3046875 201.98554993 C-54.30652367 201.08747336 -54.30835985 200.1893968 -54.31025166 199.2641058 C-54.34071004 184.72295617 -54.39590153 170.18200028 -54.46023559 155.64096558 C-54.52569883 140.7202553 -54.564578 125.79964648 -54.57878548 110.87879848 C-54.58838991 101.67188528 -54.61872247 92.46551969 -54.67558128 83.25877506 C-54.71258638 76.94514751 -54.72376606 70.631803 -54.71467566 64.31807488 C-54.71019234 60.67527889 -54.71705786 57.03343963 -54.75460434 53.39081383 C-54.79504007 49.43896661 -54.78107165 45.48836262 -54.76194763 41.53633118 C-54.78233752 40.38845847 -54.80272741 39.24058577 -54.82373518 38.05792904 C-54.73376318 31.18653596 -53.60897776 27.55762509 -48.64727074 22.70270348 C-47.7923539 21.93271491 -47.7923539 21.93271491 -46.92016602 21.14717102 C-46.15833008 20.33248352 -45.39649414 19.51779602 -44.61157227 18.67842102 C-32.95037015 7.55213643 -16.20025019 0.06893259 0 0 Z " fill="#E0E5EF" transform="translate(309.920166015625,121.85282897949219)"/>
<path d="M0 0 C1.56105217 0.00033989 1.56105217 0.00033989 3.15364075 0.00068665 C4.26527084 0.0161705 5.37690094 0.03165436 6.5222168 0.04760742 C8.24289619 0.05397469 8.24289619 0.05397469 9.99833679 0.06047058 C13.65627676 0.07724134 17.31366254 0.11489182 20.97143555 0.15307617 C23.45384946 0.16812503 25.93627202 0.18181308 28.41870117 0.1940918 C34.49896786 0.22713968 40.5789121 0.27732377 46.65893555 0.34057617 C46.65953264 0.88595427 46.66012972 1.43133237 46.66074491 1.99323708 C46.69664052 34.3183345 46.753282 66.64331944 46.8368565 98.96832687 C46.84687393 102.84981519 46.85671806 106.73130393 46.86645508 110.61279297 C46.86839645 111.38552602 46.87033782 112.15825907 46.87233803 112.95440828 C46.90335732 125.46563699 46.92033848 137.97684736 46.93212977 150.48810727 C46.9445417 163.32626429 46.97204404 176.16432506 47.01354861 189.00242132 C47.03868286 196.9239473 47.05205289 204.84531366 47.05036512 212.76688009 C47.05033184 218.84164227 47.07129612 224.91614707 47.10010338 230.99084854 C47.10862971 233.4825203 47.11033388 235.97422608 47.10473824 238.46590614 C47.09811832 241.8663457 47.1159725 245.26581145 47.13995361 248.66615295 C47.1321932 249.65351867 47.12443278 250.64088439 47.1164372 251.65817028 C47.19236193 257.73433499 47.96090765 261.44188253 51.65893555 266.34057617 C55.4447992 269.44028422 58.42589262 269.71350245 63.24263 269.70565796 C64.21449864 269.71033646 64.21449864 269.71033646 65.20600098 269.71510947 C67.36934143 269.72203389 69.53201504 269.7077407 71.6953125 269.69360352 C73.24955372 269.69443463 74.80379472 269.69665177 76.35803223 269.70014954 C79.7018233 269.7050955 83.04543888 269.70100871 86.38921547 269.69013596 C91.68046411 269.67376374 96.97149303 269.68224644 102.26274109 269.69497681 C116.35838858 269.72508641 130.45399656 269.72364933 144.54965991 269.70472395 C153.81097899 269.6923804 163.07204896 269.6942811 172.33333939 269.72311175 C177.58910607 269.73832429 182.84419567 269.73089461 188.09991992 269.70640159 C191.37596516 269.69630606 194.65170226 269.70704954 197.92771149 269.72351646 C199.44177727 269.7269581 200.95589096 269.72191369 202.4698925 269.70754814 C210.53503724 269.63578738 217.42822914 269.57807122 223.65893555 275.34057617 C226.30402334 278.41229103 226.77765555 280.7972387 227.09643555 284.71557617 C227.50979191 289.57859218 228.79998872 292.36981669 231.65893555 296.34057617 C235.1571533 299.03151291 237.16891771 299.4425726 241.65893555 300.34057617 C241.65893555 320.14057617 241.65893555 339.94057617 241.65893555 360.34057617 C219.04023188 360.34057617 202.21976496 352.74646319 186.09643555 336.96557617 C182.81340709 333.64951926 182.81340709 333.64951926 181.65893555 331.34057617 C180.70071836 331.33910961 179.74250118 331.33764305 178.75524712 331.33613205 C155.44490755 331.29954492 132.13471175 331.24010564 108.8244915 331.15667343 C97.55185582 331.11685591 86.27929023 331.08447718 75.0065918 331.06958008 C65.18185732 331.05657765 55.35727687 331.02964897 45.53262913 330.98596311 C40.33002506 330.96331667 35.1276112 330.9476674 29.92495346 330.94869232 C25.02800953 330.94943705 20.13148659 330.93156156 15.23465157 330.89940834 C13.43757738 330.89088994 11.64045608 330.88917255 9.84337044 330.89477348 C7.38832303 330.90140584 4.93461806 330.88351244 2.47970581 330.85955811 C1.41451039 330.87119873 1.41451039 330.87119873 0.32779586 330.88307452 C-4.6750207 330.79673858 -7.53748549 329.55412198 -11.34106445 326.34057617 C-13.91655096 322.73849377 -14.71656943 320.2768007 -14.72138119 315.86947727 C-14.7340411 314.22986557 -14.7340411 314.22986557 -14.74695677 312.5571304 C-14.74094672 311.36181145 -14.73493667 310.16649251 -14.72874451 308.93495178 C-14.73413004 307.66084472 -14.73951558 306.38673765 -14.74506432 305.07402128 C-14.75953482 301.53953736 -14.7552693 298.00528631 -14.74789751 294.47078955 C-14.74317208 290.65816209 -14.75567012 286.84558547 -14.76591492 283.03297424 C-14.7831205 275.56459524 -14.7839393 268.09630031 -14.77870201 260.62790663 C-14.77466239 254.55827405 -14.7761014 248.48866634 -14.78145027 242.41903496 C-14.78219869 241.55553204 -14.78294712 240.69202912 -14.78371822 239.80235944 C-14.78524968 238.04821749 -14.78678802 236.29407555 -14.78833319 234.53993361 C-14.80206456 218.08595109 -14.79661604 201.6320161 -14.78514797 185.17803466 C-14.77521465 170.12181853 -14.78815684 155.06572528 -14.81208216 140.00952811 C-14.83645874 124.55301842 -14.84608461 109.096566 -14.83942944 93.64003748 C-14.83593404 84.96107468 -14.8381904 76.28220641 -14.85568047 67.60325813 C-14.87038442 60.21513185 -14.87106161 52.82716665 -14.85360955 45.43904359 C-14.84508224 41.66914356 -14.84299189 37.8995315 -14.85826111 34.1296463 C-14.87460478 30.04392422 -14.85999551 25.95890031 -14.8422699 21.8731842 C-14.8518749 20.68009598 -14.86147991 19.48700776 -14.87137598 18.25776535 C-14.8169122 12.17734672 -14.73544973 7.97197683 -10.34106445 3.34057617 C-6.76201705 0.81532685 -4.36654866 -0.03187262 0 0 Z " fill="#8CD96B" transform="translate(14.341064453125,151.659423828125)"/>
<path d="M0 0 C1.27766074 -0.01275683 2.55532148 -0.02551367 3.87169921 -0.03865707 C5.28747319 -0.03769827 6.70324699 -0.03643981 8.11902046 -0.03491402 C9.62487844 -0.04409943 11.13072906 -0.05456473 12.6365701 -0.06620038 C16.77666702 -0.09428286 20.91662493 -0.10352951 25.0568049 -0.10957646 C29.52214467 -0.11924184 33.98738887 -0.14594707 38.45266914 -0.17013741 C49.24201271 -0.22466118 60.03135399 -0.25031534 70.82080382 -0.2729885 C75.90840586 -0.28434004 80.99599869 -0.29886268 86.08359337 -0.31308556 C103.01055201 -0.35931655 119.93750271 -0.39859239 136.86451721 -0.41645813 C141.25706041 -0.42116768 145.64960359 -0.42588737 150.04214668 -0.43069649 C151.13383227 -0.4318854 152.22551786 -0.43307431 153.35028483 -0.43429925 C171.00122883 -0.45480924 188.65164625 -0.52285341 206.30236803 -0.61121736 C224.44725993 -0.70131144 242.59188612 -0.74957668 260.73700345 -0.75711453 C270.91523922 -0.76234385 281.09273213 -0.78529392 291.27075005 -0.85485649 C299.94719775 -0.91400133 308.62270938 -0.93472604 317.29933213 -0.90718482 C321.71802243 -0.89428415 326.13479969 -0.89835959 330.55322838 -0.95176506 C349.69338704 -1.17007243 365.39988592 -0.45277058 382.23517823 9.90684295 C385.84939406 12.09448668 389.59538833 14.02422629 393.33906639 15.97978508 C397.61704454 18.55098236 400.10975107 21.62367917 401.70181465 26.39986992 C402.07007689 32.01586908 401.91737472 35.57652981 398.70181465 40.39986992 C394.73129793 44.0058461 390.93549319 46.52735333 386.0963459 48.91549492 C385.18751907 49.36744225 385.18751907 49.36744225 384.26033211 49.82851982 C382.34864193 50.77657339 380.43156315 51.71311772 378.51431465 52.64986992 C377.21774441 53.29240079 375.9215172 53.93562436 374.62564278 54.57955742 C362.60895055 60.52283645 362.60895055 60.52283645 355.60223866 60.534091 C354.31807613 60.53854884 353.03391361 60.54300668 351.71083707 60.54759961 C350.27746561 60.54751031 348.84409416 60.54732045 347.41072273 60.54704094 C345.89448223 60.55033945 344.3782426 60.55406499 342.8620041 60.55818242 C338.68458534 60.56821182 334.50718095 60.57192071 330.32975185 60.57457173 C325.82861905 60.57847192 321.32749767 60.58805036 316.82637215 60.59678459 C305.95171494 60.61655566 295.0770568 60.62661541 284.20238611 60.63551238 C279.08420197 60.63989368 273.96601886 60.64526085 268.84783554 60.65050125 C251.83941519 60.66751314 234.83099549 60.68200851 217.82256794 60.68924999 C213.4078865 60.69115995 208.99320506 60.69308028 204.57852364 60.69503593 C202.93260983 60.69576154 202.93260983 60.69576154 201.25344525 60.69650181 C183.46824291 60.70480662 165.68310774 60.73015132 147.89793476 60.76261661 C129.64810918 60.7956592 111.39831777 60.81369616 93.14846212 60.81689423 C82.89779866 60.81906178 72.64723317 60.82784631 62.39659882 60.85335541 C53.66896662 60.87502407 44.9414562 60.88313172 36.21380015 60.87338863 C31.75937966 60.86883295 27.30521063 60.8708035 22.85082436 60.89015007 C18.77400437 60.90770421 14.69762072 60.90684755 10.6207966 60.89125278 C9.14501012 60.88886488 7.66919405 60.89326123 6.19345298 60.90508143 C4.18866038 60.92014611 2.18371905 60.90816972 0.17891407 60.89485455 C-1.4920741 60.89631976 -1.4920741 60.89631976 -3.1968196 60.89781457 C-7.91125636 60.14088077 -11.07287333 57.83110041 -14.14608574 54.24142265 C-15.81305139 50.12999794 -15.74655127 46.33335697 -15.7317791 41.93502617 C-15.73702095 41.02409706 -15.7422628 40.11316795 -15.7476635 39.17463493 C-15.75407301 37.25240915 -15.75276058 35.3301441 -15.74423027 33.40792656 C-15.73572341 30.47549009 -15.76449106 27.5450046 -15.79623222 24.61276054 C-15.79784454 22.74101633 -15.79726611 20.86926869 -15.7942791 18.99752617 C-15.80551308 18.12548042 -15.81674706 17.25343468 -15.82832146 16.3549633 C-15.76629 10.9044192 -15.04081194 7.64471736 -11.29818535 3.39986992 C-7.44108039 0.59276279 -4.73664038 0.02070431 0 0 Z " fill="#396873" transform="translate(46.29818534851074,-0.3998699188232422)"/>
<path d="M0 0 C112.86 0 225.72 0 342 0 C340.9568108 7.30232437 340.48778561 9.59406152 335 14 C330.07927729 16.93309615 324.97949025 19.41054739 319.8125 21.875 C318.41921119 22.55583921 317.02662575 23.23811983 315.63476562 23.921875 C302.93695065 30.1255437 302.93695065 30.1255437 296.91441059 30.12304783 C295.85645198 30.12503888 294.79849337 30.12702993 293.70847541 30.12908131 C292.54214755 30.12616847 291.37581969 30.12325563 290.17414856 30.12025452 C288.93835247 30.12110894 287.70255638 30.12196337 286.42931193 30.12284368 C282.99279356 30.12420905 279.55633178 30.12107221 276.11982024 30.11606562 C272.41636188 30.11175623 268.71290535 30.11320789 265.00944519 30.1139679 C258.5908396 30.11449282 252.17224416 30.11134931 245.75364113 30.10573006 C236.4733634 30.09761079 227.19309059 30.0949994 217.91280969 30.09374207 C202.85699079 30.09155222 187.80117729 30.08489395 172.74536133 30.07543945 C158.11808296 30.0662636 143.49080606 30.05918361 128.86352539 30.05493164 C127.9622409 30.05466892 127.0609564 30.05440619 126.13236026 30.05413551 C121.61098265 30.05283049 117.08960503 30.05156678 112.56822741 30.05032361 C75.04548097 30.03995309 37.52274126 30.02206181 0 30 C0 20.1 0 10.2 0 0 Z " fill="#2D4A59" transform="translate(106,30)"/>
<path d="M0 0 C0.64446579 -0.00043808 1.28893158 -0.00087616 1.95292664 -0.00132751 C4.06878676 0.00075127 6.18384002 0.02403749 8.29956055 0.04760742 C9.77214627 0.05320666 11.24473761 0.05747521 12.71733093 0.06047058 C16.58244408 0.07189369 20.44721597 0.10133861 24.31219482 0.13458252 C28.95527342 0.17075119 33.59846649 0.18445667 38.24164581 0.20194244 C45.28592724 0.23097795 52.32946072 0.28848179 59.3737793 0.34057617 C59.3737793 20.14057617 59.3737793 39.94057617 59.3737793 60.34057617 C43.14308112 60.50101141 43.14308112 60.50101141 36.20581055 60.53588867 C31.47857628 60.55976784 26.75165296 60.58796693 22.0246582 60.64233398 C18.21208929 60.68590769 14.39985398 60.70973741 10.58705521 60.72008514 C9.13501359 60.72745598 7.68298951 60.74184974 6.23109055 60.7634964 C4.19150597 60.79268593 2.15328641 60.79652604 0.11352539 60.79467773 C-1.62521347 60.8080014 -1.62521347 60.8080014 -3.39907837 60.82159424 C-8.20328472 60.10550867 -11.34750582 57.83418408 -14.47412109 54.18212891 C-16.14108674 50.0707042 -16.07458662 46.27406323 -16.05981445 41.87573242 C-16.0650563 40.96480331 -16.07029816 40.05387421 -16.07569885 39.11534119 C-16.08210836 37.19311541 -16.08079594 35.27085035 -16.07226562 33.34863281 C-16.06375876 30.41619634 -16.09252641 27.48571085 -16.12426758 24.5534668 C-16.1258799 22.68172259 -16.12530147 20.80997494 -16.12231445 18.93823242 C-16.13354843 18.06618668 -16.14478241 17.19414093 -16.15635681 16.29566956 C-16.09432535 10.84512546 -15.3688473 7.58542361 -11.6262207 3.34057617 C-7.66922887 0.4276987 -4.87237766 -0.02794863 0 0 Z " fill="#FFBE3F" transform="translate(46.626220703125,-0.340576171875)"/>
<path d="M0 0 C1.47298946 -0.00269889 2.94597717 -0.00658461 4.41896057 -0.01159668 C7.49798637 -0.01747504 10.5765462 -0.00898453 13.65551758 0.00976562 C17.58402153 0.03253485 21.51143097 0.0194356 25.43989468 -0.00452423 C28.47960003 -0.01904502 31.51905005 -0.0143474 34.5587635 -0.00401306 C36.00630895 -0.00136201 37.45387827 -0.00455793 38.9013958 -0.01393127 C46.92695097 -0.05449884 53.17647126 -0.04634743 59.94140625 4.53125 C63.23543511 8.41551589 64.68492118 12.26041641 64.390625 17.4765625 C63.539279 21.37054506 61.68230059 24.65649803 58.94140625 27.53125 C54.52019357 30.14395638 51.25657414 30.91440728 46.14501953 30.95117188 C45.49375092 30.95964142 44.8424823 30.96811096 44.17147827 30.97683716 C42.03468893 31.00009118 39.89862465 31.00123211 37.76171875 31 C36.26487953 31.00710913 34.76804302 31.01480923 33.27120972 31.02307129 C30.13922546 31.0364898 27.00749316 31.03809705 23.87548828 31.03222656 C19.87846865 31.02633575 15.88266592 31.05690682 11.88588142 31.09734344 C8.79557885 31.12330137 5.70556607 31.12609057 2.61516953 31.12245178 C1.14247457 31.1241358 -0.33023482 31.13370874 -1.80282211 31.15159607 C-15.6196106 31.30095848 -15.6196106 31.30095848 -21.65628052 26.93371582 C-25.0958214 23.49380067 -25.91163053 19.70695577 -26.49609375 15.03125 C-25.77737605 9.28150841 -23.97315373 6.02436043 -19.40234375 2.4597168 C-13.48338939 -0.82632355 -6.5746851 -0.04250529 0 0 Z " fill="#CFD7E6" transform="translate(147.05859375,331.46875)"/>
<path d="M0 0 C1.47298946 -0.00269889 2.94597717 -0.00658461 4.41896057 -0.01159668 C7.49798637 -0.01747504 10.5765462 -0.00898453 13.65551758 0.00976562 C17.58402153 0.03253485 21.51143097 0.0194356 25.43989468 -0.00452423 C28.47960003 -0.01904502 31.51905005 -0.0143474 34.5587635 -0.00401306 C36.00630895 -0.00136201 37.45387827 -0.00455793 38.9013958 -0.01393127 C46.92695097 -0.05449884 53.17647126 -0.04634743 59.94140625 4.53125 C63.23543511 8.41551589 64.68492118 12.26041641 64.390625 17.4765625 C63.539279 21.37054506 61.68230059 24.65649803 58.94140625 27.53125 C54.52019357 30.14395638 51.25657414 30.91440728 46.14501953 30.95117188 C45.49375092 30.95964142 44.8424823 30.96811096 44.17147827 30.97683716 C42.03468893 31.00009118 39.89862465 31.00123211 37.76171875 31 C36.26487953 31.00710913 34.76804302 31.01480923 33.27120972 31.02307129 C30.13922546 31.0364898 27.00749316 31.03809705 23.87548828 31.03222656 C19.87846865 31.02633575 15.88266592 31.05690682 11.88588142 31.09734344 C8.79557885 31.12330137 5.70556607 31.12609057 2.61516953 31.12245178 C1.14247457 31.1241358 -0.33023482 31.13370874 -1.80282211 31.15159607 C-15.6196106 31.30095848 -15.6196106 31.30095848 -21.65628052 26.93371582 C-25.0958214 23.49380067 -25.91163053 19.70695577 -26.49609375 15.03125 C-25.77737605 9.28150841 -23.97315373 6.02436043 -19.40234375 2.4597168 C-13.48338939 -0.82632355 -6.5746851 -0.04250529 0 0 Z " fill="#CFD7E6" transform="translate(147.05859375,271.46875)"/>
<path d="M0 0 C1.47298946 -0.00269889 2.94597717 -0.00658461 4.41896057 -0.01159668 C7.49798637 -0.01747504 10.5765462 -0.00898453 13.65551758 0.00976562 C17.58402153 0.03253485 21.51143097 0.0194356 25.43989468 -0.00452423 C28.47960003 -0.01904502 31.51905005 -0.0143474 34.5587635 -0.00401306 C36.00630895 -0.00136201 37.45387827 -0.00455793 38.9013958 -0.01393127 C46.92695097 -0.05449884 53.17647126 -0.04634743 59.94140625 4.53125 C63.23543511 8.41551589 64.68492118 12.26041641 64.390625 17.4765625 C63.539279 21.37054506 61.68230059 24.65649803 58.94140625 27.53125 C54.52019357 30.14395638 51.25657414 30.91440728 46.14501953 30.95117188 C45.49375092 30.95964142 44.8424823 30.96811096 44.17147827 30.97683716 C42.03468893 31.00009118 39.89862465 31.00123211 37.76171875 31 C36.26487953 31.00710913 34.76804302 31.01480923 33.27120972 31.02307129 C30.13922546 31.0364898 27.00749316 31.03809705 23.87548828 31.03222656 C19.87846865 31.02633575 15.88266592 31.05690682 11.88588142 31.09734344 C8.79557885 31.12330137 5.70556607 31.12609057 2.61516953 31.12245178 C1.14247457 31.1241358 -0.33023482 31.13370874 -1.80282211 31.15159607 C-15.6196106 31.30095848 -15.6196106 31.30095848 -21.65628052 26.93371582 C-25.0958214 23.49380067 -25.91163053 19.70695577 -26.49609375 15.03125 C-25.77737605 9.28150841 -23.97315373 6.02436043 -19.40234375 2.4597168 C-13.48338939 -0.82632355 -6.5746851 -0.04250529 0 0 Z " fill="#CFD7E6" transform="translate(147.05859375,211.46875)"/>
<path d="M0 0 C1.97267349 -0.01902626 1.97267349 -0.01902626 3.98519897 -0.03843689 C5.40891681 -0.03638498 6.83263356 -0.03339656 8.25634766 -0.02954102 C9.73076619 -0.0341075 11.2051826 -0.03941446 12.67959595 -0.04542542 C15.76451278 -0.05434064 18.84917053 -0.05195248 21.93408203 -0.04199219 C25.87042247 -0.03051598 29.805864 -0.05070032 33.74208641 -0.07990932 C36.78605754 -0.0983357 39.82981593 -0.09796597 42.87382889 -0.0922718 C44.32417688 -0.09211931 45.77453996 -0.09810368 47.22483444 -0.11056328 C55.11214468 -0.1687744 61.57699713 -0.14978855 68.29541016 4.40405273 C71.58748297 8.2867179 73.04509031 12.13453281 72.74072266 17.34936523 C71.89266277 21.26234331 70.13565193 24.58878012 67.29541016 27.40405273 C60.41041231 31.48053052 53.02788289 30.87738175 45.23681641 30.87280273 C43.76382664 30.87991426 42.29083961 30.88761469 40.81785583 30.89587402 C37.73892505 30.90927875 34.66025052 30.91090558 31.58129883 30.9050293 C27.6526815 30.89913352 23.72530015 30.92973643 19.79692173 30.97014618 C16.75723243 30.99610381 13.71783774 30.99889346 10.6780529 30.99525452 C9.23047718 30.99693792 7.7828867 31.00650488 6.33542061 31.0243988 C-7.2329063 31.1737072 -7.2329063 31.1737072 -13.29335022 26.80651855 C-16.72159872 23.39958379 -17.53113137 19.59657973 -18.20458984 14.96655273 C-17.55379345 10.32962843 -15.91384065 6.83720476 -12.70458984 3.40405273 C-8.31135431 0.80820874 -5.07935669 0.02380623 0 0 Z " fill="#B8C4D9" transform="translate(318.70458984375,211.595947265625)"/>
<path d="M0 0 C1.47298946 -0.00269889 2.94597717 -0.00658461 4.41896057 -0.01159668 C7.49798637 -0.01747504 10.5765462 -0.00898453 13.65551758 0.00976562 C17.58402153 0.03253485 21.51143097 0.0194356 25.43989468 -0.00452423 C28.47960003 -0.01904502 31.51905005 -0.0143474 34.5587635 -0.00401306 C36.00630895 -0.00136201 37.45387827 -0.00455793 38.9013958 -0.01393127 C46.92695097 -0.05449884 53.17647126 -0.04634743 59.94140625 4.53125 C63.23372398 8.41349815 64.69106584 12.26208236 64.38671875 17.4765625 C63.53865886 21.38954057 61.78164802 24.71597738 58.94140625 27.53125 C52.0564084 31.60772779 44.67387899 31.00457902 36.8828125 31 C35.40982273 31.00711152 33.93683571 31.01481196 32.46385193 31.02307129 C29.38492114 31.03647601 26.30624662 31.03810284 23.22729492 31.03222656 C19.2986776 31.02633079 15.37129624 31.0569337 11.44291782 31.09734344 C8.40322853 31.12330108 5.36383383 31.12609072 2.324049 31.12245178 C0.87647328 31.12413519 -0.5711172 31.13370215 -2.0185833 31.15159607 C-15.5869102 31.30090447 -15.5869102 31.30090447 -21.64735413 26.93371582 C-25.09952269 23.5030097 -25.91159819 19.7072145 -26.49609375 15.03125 C-25.77737605 9.28150841 -23.97315373 6.02436043 -19.40234375 2.4597168 C-13.48338939 -0.82632355 -6.5746851 -0.04250529 0 0 Z " fill="#B8C4D9" transform="translate(327.05859375,331.46875)"/>
<path d="M0 0 C1.47298946 -0.00269889 2.94597717 -0.00658461 4.41896057 -0.01159668 C7.49798637 -0.01747504 10.5765462 -0.00898453 13.65551758 0.00976562 C17.58402153 0.03253485 21.51143097 0.0194356 25.43989468 -0.00452423 C28.47960003 -0.01904502 31.51905005 -0.0143474 34.5587635 -0.00401306 C36.00630895 -0.00136201 37.45387827 -0.00455793 38.9013958 -0.01393127 C46.92695097 -0.05449884 53.17647126 -0.04634743 59.94140625 4.53125 C63.23372398 8.41349815 64.69106584 12.26208236 64.38671875 17.4765625 C63.53865886 21.38954057 61.78164802 24.71597738 58.94140625 27.53125 C52.0564084 31.60772779 44.67387899 31.00457902 36.8828125 31 C35.40982273 31.00711152 33.93683571 31.01481196 32.46385193 31.02307129 C29.38492114 31.03647601 26.30624662 31.03810284 23.22729492 31.03222656 C19.2986776 31.02633079 15.37129624 31.0569337 11.44291782 31.09734344 C8.40322853 31.12330108 5.36383383 31.12609072 2.324049 31.12245178 C0.87647328 31.12413519 -0.5711172 31.13370215 -2.0185833 31.15159607 C-15.5869102 31.30090447 -15.5869102 31.30090447 -21.64735413 26.93371582 C-25.09952269 23.5030097 -25.91159819 19.7072145 -26.49609375 15.03125 C-25.77737605 9.28150841 -23.97315373 6.02436043 -19.40234375 2.4597168 C-13.48338939 -0.82632355 -6.5746851 -0.04250529 0 0 Z " fill="#B8C4D9" transform="translate(327.05859375,271.46875)"/>
<path d="M0 0 C0.64446579 -0.00043808 1.28893158 -0.00087616 1.95292664 -0.00132751 C4.06878676 0.00075127 6.18384002 0.02403749 8.29956055 0.04760742 C9.77214627 0.05320666 11.24473761 0.05747521 12.71733093 0.06047058 C16.58244408 0.07189369 20.44721597 0.10133861 24.31219482 0.13458252 C28.95527342 0.17075119 33.59846649 0.18445667 38.24164581 0.20194244 C45.28592724 0.23097795 52.32946072 0.28848179 59.3737793 0.34057617 C59.3737793 10.24057617 59.3737793 20.14057617 59.3737793 30.34057617 C34.6237793 30.34057617 9.8737793 30.34057617 -15.6262207 30.34057617 C-15.6262207 9.34057617 -15.6262207 9.34057617 -11.6262207 3.34057617 C-7.77533884 0.28455831 -4.85051554 -0.02782322 0 0 Z " fill="#FFDE40" transform="translate(46.626220703125,-0.340576171875)"/>
</svg>
